<?xml version="1.0" encoding="UTF-8" standalone="no"?>
<!-- Created with Inkscape (http://www.inkscape.org/) -->

<svg
   width="19.050001mm"
   height="23.812502mm"
   viewBox="0 0 19.050001 23.812502"
   version="1.1"
   id="svg1"
   xml:space="preserve"
   inkscape:export-filename="anon.png"
   inkscape:export-xdpi="96"
   inkscape:export-ydpi="96"
   xmlns:inkscape="http://www.inkscape.org/namespaces/inkscape"
   xmlns:sodipodi="http://sodipodi.sourceforge.net/DTD/sodipodi-0.dtd"
   xmlns="http://www.w3.org/2000/svg"
   xmlns:svg="http://www.w3.org/2000/svg"><sodipodi:namedview
     id="namedview1"
     pagecolor="#505050"
     bordercolor="#eeeeee"
     borderopacity="1"
     inkscape:showpageshadow="0"
     inkscape:pageopacity="0"
     inkscape:pagecheckerboard="0"
     inkscape:deskcolor="#d1d1d1"
     inkscape:document-units="mm"><inkscape:page
       x="2.7511992e-15"
       y="0"
       width="19.049999"
       height="23.812502"
       id="page2"
       margin="0"
       bleed="0" /></sodipodi:namedview><defs
     id="defs1" /><g
     inkscape:label="Capa 1 copia"
     inkscape:groupmode="layer"
     id="g12"
     style="display:inline"
     transform="translate(-95.514585,-136.52499)"><path
       id="path13"
       style="display:inline;fill:#ffffff;stroke-width:0.264583"
       d="m 100.80625,141.2875 c -1.056267,0 -2.193148,0.46509 -3.175,2.11667 1.033528,-0.71934 1.912031,-1.05834 2.64583,-1.05834 1.42214,0 2.13114,1.66605 2.35025,1.88309 0.30799,0.31006 0.81235,0.31006 1.12241,0 0.31006,-0.30799 0.31006,-0.81235 0,-1.12241 -0.1943,-0.19224 -1.12448,-1.81901 -2.94349,-1.81901 z m 8.46667,0 c -1.81901,0 -2.74919,1.62677 -2.94143,1.82108 -0.31005,0.30799 -0.31005,0.81235 0,1.12241 0.308,0.31006 0.81236,0.31006 1.12242,0 0.21704,-0.21911 0.92604,-1.88516 2.34817,-1.88516 0.73381,0 1.61231,0.339 2.64584,1.05834 -0.98186,-1.65158 -2.11874,-2.11667 -3.175,-2.11667 z m -8.99584,3.175 c -0.868158,0 -1.630904,0.31419 -2.116663,0.79375 0.485759,0.47956 1.248505,0.79375 2.116663,0.79375 0.86817,0 1.63091,-0.31419 2.11667,-0.79375 -0.48576,-0.47956 -1.2485,-0.79375 -2.11667,-0.79375 z m 9.525,0 c -0.86816,0 -1.6309,0.31419 -2.11666,0.79375 0.48576,0.47956 1.2485,0.79375 2.11666,0.79375 0.86817,0 1.63091,-0.31419 2.11667,-0.79375 -0.48576,-0.47956 -1.2485,-0.79375 -2.11667,-0.79375 z m -12.17083,4.7625 2.64583,4.23333 h 3.70417 l 1.05833,-1.05833 1.05834,1.05833 h 3.70416 l 2.64584,-4.23333 -3.175,2.64583 h -2.11667 l -1.5875,-1.5875 h -1.05833 l -1.5875,1.5875 h -2.11667 z m 6.35,6.35 v 2.64583 l 1.05833,1.05834 1.05834,-1.05834 V 155.575 Z" /><path
       d="m 105.03958,136.525 c -5.260658,0 -9.524997,1.42214 -9.524997,3.175 0,0 0,4.27674 0,8.99583 0,2.68924 2.867009,10.09758 9.524997,11.64167 6.65799,-1.54409 9.525,-8.95243 9.525,-11.64167 0,-4.71909 0,-8.99583 0,-8.99583 0,-1.75286 -4.26434,-3.175 -9.525,-3.175 z m -4.23333,4.7625 c 1.81901,0 2.74919,1.62677 2.94349,1.81901 0.31006,0.31006 0.31006,0.81442 0,1.12241 -0.31006,0.31006 -0.81442,0.31006 -1.12241,0 -0.21911,-0.21704 -0.92811,-1.88309 -2.35025,-1.88309 -0.733802,0 -1.612302,0.339 -2.64583,1.05834 0.981852,-1.65158 2.118733,-2.11667 3.175,-2.11667 z m 1.5875,3.96875 c -0.48576,0.47956 -1.2485,0.79375 -2.11667,0.79375 -0.868161,0 -1.630905,-0.31419 -2.116664,-0.79375 0.485759,-0.47956 1.248503,-0.79375 2.116664,-0.79375 0.86817,0 1.63091,0.31419 2.11667,0.79375 z m 3.70417,12.96458 -1.05834,1.05834 -1.05833,-1.05834 V 155.575 h 2.11667 z m 3.70416,-4.7625 h -3.70416 l -1.05834,-1.05833 -1.05833,1.05833 h -3.70417 l -2.64583,-4.23333 3.175,2.64583 h 2.11667 l 1.5875,-1.5875 h 1.05833 l 1.5875,1.5875 h 2.11667 l 3.175,-2.64583 z m -2.11666,-8.20208 c 0.48576,-0.47956 1.2485,-0.79375 2.11666,-0.79375 0.86817,0 1.63091,0.31419 2.11667,0.79375 -0.48576,0.47956 -1.2485,0.79375 -2.11667,0.79375 -0.86816,0 -1.6309,-0.31419 -2.11666,-0.79375 z m 2.11666,-2.91042 c -1.42213,0 -2.13113,1.66605 -2.34817,1.88516 -0.31006,0.31006 -0.81442,0.31006 -1.12242,0 -0.31005,-0.31006 -0.31005,-0.81442 0,-1.12241 0.19224,-0.19431 1.12242,-1.82108 2.94143,-1.82108 1.05626,0 2.19314,0.46509 3.175,2.11667 -1.03353,-0.71934 -1.91203,-1.05834 -2.64584,-1.05834 z"
       id="path14"
       style="display:inline;stroke-width:0.529167" /></g></svg>
